<svg version="1" xmlns="http://www.w3.org/2000/svg" width="1666.667" height="1666.667" viewBox="0 0 1250.000000 1250.000000"><path d="M328.7 369.6c-.1.1-4.7.4-10.3.8-5.5.4-10.9.8-12 1-1 .2-4.6.7-7.9 1-14.6 1.7-43.9 9.7-58 15.9-48.5 21.4-78.6 55.6-88.3 100.1-2.4 11.4-2.3 39.7.2 51.6 6.4 30.5 20.7 56.6 44.1 80.9 14.6 15.1 26.5 23.9 69 50.9 2.2 1.4 5.2 3.3 6.7 4.4 1.5 1 3 1.8 3.3 1.8.4 0 2.1 1.1 3.9 2.5 1.8 1.4 3.8 2.5 4.4 2.5.6 0 1.2.3 1.4.7.2.5 3.7 3 7.8 5.8 23.4 15.6 37.7 32.2 41.9 48.5 9.1 36-13 61.8-53.4 62.3-8.4.1-19.9-.8-22.7-1.8-.7-.2-2.6-.7-4.2-.9-17.9-3-44.7-19.3-67.5-41-10-9.6-13.6-13-15.8-14.9l-2.1-1.9v120.1l16.6 5.5c19.1 6.2 33.4 10 44.2 11.6 4.1.6 8.6 1.3 10 1.6 13.3 2.2 68.3 2.2 80-.1 1.2-.2 4.9-.7 8.2-1 3.3-.4 7.1-1 8.3-1.5 1.3-.5 2.5-.7 2.7-.5.2.2 3.6-.4 7.6-1.4 4-1.1 7.2-1.7 7.2-1.4 0 .3.7 0 1.5-.7s1.5-1 1.5-.7c0 1.1 20.1-6.3 28.9-10.5 9.8-4.7 25.2-14.9 31.8-21 8.9-8.4 10.2-9.7 15.6-16.1 13.8-16.2 24.6-36.3 30.1-55.7.9-3 1.6-5.8 1.7-6.2 0-.4.5-2.2 1-4 1.5-5.4 2.3-13.7 2.3-25.8.1-17.8-1.7-28.7-7.1-45-10.4-31.3-30.6-58.1-60.4-80.5-5.3-4-10-7.4-10.5-7.6-.5-.2-5.4-3.4-10.9-7-5.5-3.7-19.9-12.6-32-19.9-51.9-31.3-62.5-40.3-68.7-58.8-4.3-12.9-2.4-31.6 4.5-43 6.7-11.2 19.9-19.8 34.6-22.6 7.4-1.4 26-1.5 33.6-.1 23.3 4.2 51.2 19 82 43.4 8.5 6.8 14.1 11.1 16.6 13 1.9 1.3 1.9 1 1.4-12.4-.3-7.6-.8-17.3-1-21.4-.2-4.2-.7-13-1-19.6-.3-6.6-.8-15.4-1-19.5-.2-4.1-.7-14.3-1-22.5-.4-8.3-.9-15.3-1.1-15.7-1.1-1.7-36.3-13.7-50.5-17.2-12.4-3-20.4-4.3-32.1-5.2-7.9-.6-34.6-1.2-35.1-.8zM559.6 378.8c3.5 4.6 31.7 40.7 34.7 44.5l2.2 2.7-.1 195.3c-.1 107.3-.4 198.6-.8 202.7-1.5 15.8-5.6 26.2-16.1 40.9-3.6 4.9-6.5 9.2-6.5 9.5 0 .2 36.6.4 81.4.4h81.4l-2-3.7c-5-8.7-10.8-20-12.8-25.1-3.5-8.7-5-15.1-6.5-27-.8-5.6-1.1-250.8-.4-251.5.3-.2 3.8 4 7.9 9.2 4.1 5.3 11.3 14.4 15.9 20.2 4.5 5.8 9.3 11.9 10.5 13.4 1.1 1.6 2.6 3.4 3.1 4 1.6 1.9 22.2 28.1 57.9 73.6 4.4 5.7 13.4 17.1 19.9 25.3l11.8 14.9 10.2-12.8c10-12.6 22.7-28.6 58-73.3 29.6-37.4 58-73 58.2-73 .5 0-.4 258.8-.9 261.8-.3 1.7-.8 4.4-1 5.8-1.6 8.6-7.5 21.2-15.1 32l-4.3 6.2h80.9c44.5 0 80.9-.2 80.9-.5s-1.6-2.8-3.5-5.4c-1.9-2.7-3.5-5.2-3.5-5.6 0-.3-.6-1.4-1.4-2.2-4.5-5.3-11.6-23-13.3-33.1-.4-2.5-.8-93.7-1-202.6l-.3-198.2 6.2-8c11.3-14.4 32.3-42.3 32.6-43.2.2-.5-28-.9-66-.9l-66.4.1-1.2 6.7c-1.6 9.4-4 14.5-10.8 22.6-3.3 3.9-8.6 10.6-11.9 14.9-3.3 4.3-8.2 10.6-10.9 14-2.7 3.3-13.4 17.1-23.9 30.6-10.5 13.5-20.2 25.9-21.6 27.6-1.4 1.6-3.7 4.5-5.1 6.4-1.4 1.8-7.5 9.7-13.5 17.4-6.1 7.8-18.2 23.3-27 34.6-8.7 11.3-16.2 20.7-16.5 21-.3.3-2.3 2.9-4.5 5.8l-4 5.3-1.8-2.3c-1-1.3-2.6-3.2-3.5-4.3-.9-1.1-6.4-8.1-12.2-15.5-5.7-7.4-11-14.2-11.7-15-.7-.8-9.2-11.6-18.9-24s-18.3-23.4-19.2-24.5c-1-1.1-5.7-7.2-10.7-13.5-4.9-6.3-9.2-11.7-9.5-12-.3-.3-1.8-2.3-3.5-4.5-1.6-2.2-3.2-4.2-3.5-4.5-.3-.3-3-3.7-6-7.5-3-3.9-13.6-17.4-23.5-30.2-10-12.7-19.2-25.3-20.5-28-1.7-3.5-2.5-7-2.8-13l-.4-8.2h-136l2.8 3.7z"/></svg>